<?xml version="1.0" encoding="UTF-8"?>
<svg version="1.1" xmlns="http://www.w3.org/2000/svg" width="194" height="194">
<path d="M0 0 C64.02 0 128.04 0 194 0 C194 64.02 194 128.04 194 194 C129.98 194 65.96 194 0 194 C0 129.98 0 65.96 0 0 Z " fill="#F30D6A" transform="translate(0,0)"/>
<path d="M0 0 C64.02 0 128.04 0 194 0 C194 64.02 194 128.04 194 194 C129.98 194 65.96 194 0 194 C0 129.98 0 65.96 0 0 Z M9 21 C9 70.83 9 120.66 9 172 C43.65 172 78.3 172 114 172 C114.495 168.04 114.495 168.04 115 164 C127.21 163.67 139.42 163.34 152 163 C152.33 165.31 152.66 167.62 153 170 C153.33 170.66 153.66 171.32 154 172 C164.23 172 174.46 172 185 172 C185 122.17 185 72.34 185 21 C126.92 21 68.84 21 9 21 Z " fill="#FEFEFE" transform="translate(0,0)"/>
<path d="M0 0 C11.22 0 22.44 0 34 0 C34 1.32 34 2.64 34 4 C32.906875 4.226875 31.81375 4.45375 30.6875 4.6875 C26.42007358 5.76648905 26.42007358 5.76648905 24 11 C23.67 17.93 23.34 24.86 23 32 C42.47 32 61.94 32 82 32 C82 40.99638989 82 40.99638989 79.21875 45.90625 C78.33219727 47.50472778 78.33219727 47.50472778 77.42773438 49.13549805 C76.79158203 50.24578369 76.15542969 51.35606934 75.5 52.5 C74.85012972 53.66526281 74.20235558 54.83169702 73.55664062 55.99926758 C72.28447507 58.29710858 71.00788956 60.59250895 69.7265625 62.88525391 C58.37774465 83.35870104 52.13121758 101.54211957 51 125 C60.81336005 120.30026838 63.79159376 112.2045699 67.3125 102.3125 C67.6528125 101.1678125 67.6528125 101.1678125 68 100 C68.99 100 69.98 100 71 100 C70.52819311 103.81962813 70.05283441 107.63874152 69.5703125 111.45703125 C69.19960064 114.39068156 68.84101733 117.32539239 68.4921875 120.26171875 C68.32838007 121.59117729 68.16432768 122.92060567 68 124.25 C67.855625 125.45140625 67.71125 126.6528125 67.5625 127.890625 C67 131 67 131 65 135 C48.83 135.33 32.66 135.66 16 136 C15.505 139.96 15.505 139.96 15 144 C-19.65 144 -54.3 144 -90 144 C-90 143.67 -90 143.34 -90 143 C-60.3 143 -30.6 143 0 143 C0 139.04 0 135.08 0 131 C-0.9075 130.9175 -1.815 130.835 -2.75 130.75 C-6.5104028 129.88221474 -7.74203767 129.09424468 -10 126 C-11.30260303 120.55617422 -11.15477978 115.06319516 -11.16113281 109.5 C-11.16858017 107.93306396 -11.16858017 107.93306396 -11.17617798 106.33447266 C-11.19074633 102.88964168 -11.19759129 99.44485668 -11.203125 96 C-11.20887904 93.60156249 -11.21463675 91.20312499 -11.22039795 88.8046875 C-11.23089151 83.78124783 -11.23674554 78.75782409 -11.24023438 73.734375 C-11.24572803 67.29824759 -11.26978177 60.86233078 -11.29820633 54.42626953 C-11.31682576 49.47460308 -11.32203786 44.52298756 -11.32357025 39.57128906 C-11.3265968 37.19823042 -11.33462538 34.82517268 -11.34775543 32.45214844 C-11.36480754 29.13460179 -11.36293794 25.81757268 -11.35644531 22.5 C-11.3656601 21.52111816 -11.37487488 20.54223633 -11.3843689 19.53369141 C-11.35220516 14.28791944 -11.02987694 10.49189834 -8 6 C-4.77208445 3.8480563 -3.71599191 3.79913557 0 4 C0 2.68 0 1.36 0 0 Z " fill="#F70C6B" transform="translate(99,28)"/>
<path d="M0 0 C28.05 0 56.1 0 85 0 C85.33 49.5 85.66 99 86 150 C75.77 150 65.54 150 55 150 C53 145 53 145 53 141 C56.96 140.67 60.92 140.34 65 140 C66.55215602 133.42181496 67.66426211 126.88388727 68.5625 120.1875 C68.81185455 118.34739129 69.06308451 116.50753551 69.31640625 114.66796875 C69.42412354 113.86641357 69.53184082 113.0648584 69.64282227 112.23901367 C69.98143967 110.11634779 70.44446517 108.07532151 71 106 C69.515 106.495 69.515 106.495 68 107 C67.14951833 109.02936222 67.14951833 109.02936222 66.625 111.5 C64.37313978 119.65570102 61.12471116 126.19856422 54 131 C53.01 131 52.02 131 51 131 C50.48502211 108.45541222 56.76462442 91.72191891 67 72 C67.7415332 70.56406494 67.7415332 70.56406494 68.49804688 69.09912109 C70.11996901 65.95996453 71.74625205 62.82312011 73.375 59.6875 C73.89916504 58.67816406 74.42333008 57.66882813 74.96337891 56.62890625 C75.45757324 55.68273437 75.95176758 54.7365625 76.4609375 53.76171875 C77.12295166 52.492677 77.12295166 52.492677 77.79833984 51.19799805 C79 49 79 49 81 46 C81.33 43.36 81.66 40.72 82 38 C62.53 38 43.06 38 23 38 C23 17 23 17 26 12 C29.22791555 9.8480563 30.28400809 9.79913557 34 10 C34 8.68 34 7.36 34 6 C22.78 6 11.56 6 0 6 C0 4.02 0 2.04 0 0 Z " fill="#060607" transform="translate(99,22)"/>
<path d="M0 0 C11.22 0 22.44 0 34 0 C34 1.32 34 2.64 34 4 C33.44570313 4.18175781 32.89140625 4.36351562 32.3203125 4.55078125 C31.59585938 4.80214844 30.87140625 5.05351563 30.125 5.3125 C29.40570313 5.55613281 28.68640625 5.79976562 27.9453125 6.05078125 C25.66005095 6.96335547 25.66005095 6.96335547 24 10 C23.6723603 12.40299777 23.6723603 12.40299777 23.68115234 15.11401367 C23.66128265 16.15486618 23.64141296 17.19571869 23.62094116 18.26811218 C23.60361435 19.95104118 23.60361435 19.95104118 23.5859375 21.66796875 C23.56657135 22.81791824 23.5472052 23.96786774 23.5272522 25.15266418 C23.46740239 28.83086699 23.42104894 32.509101 23.375 36.1875 C23.33682524 38.67905022 23.29777381 41.17058717 23.2578125 43.66210938 C23.1600441 49.77467113 23.08051668 55.88708903 23 62 C35.21 62 47.42 62 60 62 C59.90272843 55.61335376 59.79978712 49.22730592 59.68261719 42.84106445 C59.64448988 40.67152353 59.60960957 38.50192288 59.578125 36.33227539 C59.53211986 33.20176953 59.47418561 30.07166906 59.4140625 26.94140625 C59.40251129 25.98166397 59.39096008 25.02192169 59.37905884 24.03309631 C59.25439949 18.25943513 58.94134958 12.49230648 57 7 C55.16271697 5.33042272 55.16271697 5.33042272 52.875 4.9375 C51.59625 4.628125 50.3175 4.31875 49 4 C49 2.68 49 1.36 49 0 C60.22 0 71.44 0 83 0 C83 1.32 83 2.64 83 4 C82.071875 4.268125 81.14375 4.53625 80.1875 4.8125 C77.20486385 5.92367817 75.88134543 6.52454549 74 9 C73.06530296 11.80409112 72.87250005 13.50130523 72.86628723 16.40029907 C72.86202225 17.30014526 72.85775726 18.19999146 72.85336304 19.12710571 C72.85381622 20.11206024 72.85426941 21.09701477 72.85473633 22.11181641 C72.85137772 23.15118347 72.8480191 24.19055054 72.84455872 25.26141357 C72.83503658 28.70814195 72.83310468 32.15482177 72.83203125 35.6015625 C72.82881851 37.99710103 72.82545443 40.39263937 72.82194519 42.78817749 C72.81595004 47.81696019 72.81410558 52.8457257 72.81469727 57.87451172 C72.81479867 64.30702013 72.80117024 70.73941763 72.78392506 77.1718998 C72.77278312 82.12369285 72.77077877 87.07545933 72.77130699 92.02726364 C72.77012927 94.39783484 72.76571919 96.76840677 72.75797462 99.13896561 C72.74813478 102.46332702 72.75106911 105.78745085 72.75708008 109.11181641 C72.75146057 110.08462555 72.74584106 111.05743469 72.74005127 112.0597229 C72.76723244 118.00055443 73.51560902 123.24297977 75 129 C77.64 129.66 80.28 130.32 83 131 C83 132.32 83 133.64 83 135 C71.78 135 60.56 135 49 135 C49 133.68 49 132.36 49 131 C49.55429688 130.84144531 50.10859375 130.68289062 50.6796875 130.51953125 C51.40414062 130.28621094 52.12859375 130.05289063 52.875 129.8125 C53.59429687 129.59207031 54.31359375 129.37164062 55.0546875 129.14453125 C57.76770432 127.54831854 58.0375462 125.95940565 59 123 C59.32172853 120.39797181 59.32172853 120.39797181 59.31884766 117.65893555 C59.33871735 116.6182341 59.35858704 115.57753265 59.37905884 114.5052948 C59.39061005 113.3936647 59.40216125 112.28203461 59.4140625 111.13671875 C59.43342865 109.98959915 59.4527948 108.84247955 59.4727478 107.66059875 C59.53244467 104.0029744 59.57889002 100.34531841 59.625 96.6875 C59.66318883 94.20506453 59.70224108 91.72264218 59.7421875 89.24023438 C59.83976037 83.16022519 59.91940934 77.0803529 60 71 C47.79 71 35.58 71 23 71 C23.09688033 78.4750821 23.19957955 85.94960262 23.31738281 93.42431641 C23.35568566 95.96756076 23.3905362 98.51085952 23.421875 101.05419922 C23.46749662 104.70820577 23.52549678 108.36183727 23.5859375 112.015625 C23.59748871 113.15429016 23.60903992 114.29295532 23.62094116 115.46612549 C23.64081085 116.52692322 23.66068054 117.58772095 23.68115234 118.68066406 C23.69447601 119.61332092 23.70779968 120.54597778 23.7215271 121.50689697 C24.01871101 124.16751529 24.54334613 125.76363901 26 128 C28.91765 129.9451 30.62537285 130.45276317 34 131 C34 132.32 34 133.64 34 135 C22.78 135 11.56 135 0 135 C0 133.68 0 132.36 0 131 C0.56589844 130.72285156 1.13179687 130.44570312 1.71484375 130.16015625 C2.44832031 129.79792969 3.18179687 129.43570313 3.9375 129.0625 C4.66839844 128.70285156 5.39929688 128.34320313 6.15234375 127.97265625 C7.96249027 127.13628173 7.96249027 127.13628173 9 126 C9.0979026 124.50355279 9.12631792 123.00249959 9.12698364 121.50285339 C9.12980347 120.5312175 9.13262329 119.5595816 9.13552856 118.5585022 C9.13350433 117.48369598 9.1314801 116.40888977 9.12939453 115.30151367 C9.13114685 114.17637863 9.13289917 113.05124359 9.13470459 111.89201355 C9.13912693 108.15064986 9.13618318 104.40933297 9.1328125 100.66796875 C9.13348557 98.07823172 9.13445562 95.48849475 9.13571167 92.89875793 C9.13718928 87.46041202 9.13512732 82.02208385 9.13037109 76.58374023 C9.12493662 70.29731983 9.1266851 64.01093189 9.1321975 57.72451228 C9.13728492 51.68089804 9.13674272 45.63729967 9.13381577 39.59368324 C9.1331476 37.02081612 9.13397108 34.44794817 9.13629532 31.87508202 C9.13882999 28.27892224 9.13496925 24.68282503 9.12939453 21.08666992 C9.13243088 19.48356964 9.13243088 19.48356964 9.13552856 17.8480835 C9.13270874 16.86798813 9.12988892 15.88789276 9.12698364 14.87809753 C9.12660662 14.02765964 9.12622959 13.17722174 9.12584114 12.30101299 C9.05562628 9.68644882 9.05562628 9.68644882 8 6 C5.36 5.34 2.72 4.68 0 4 C0 2.68 0 1.36 0 0 Z " fill="#080608" transform="translate(16,28)"/>
<path d="M0 0 C19.47 0 38.94 0 59 0 C59 8.99638989 59 8.99638989 56.21875 13.90625 C55.33219727 15.50472778 55.33219727 15.50472778 54.42773438 17.13549805 C53.47350586 18.80092651 53.47350586 18.80092651 52.5 20.5 C51.85012972 21.66526281 51.20235558 22.83169702 50.55664062 23.99926758 C49.28447507 26.29710858 48.00788956 28.59250895 46.7265625 30.88525391 C37.95316508 46.7126018 29.55894752 62.840651 28.80859375 81.23046875 C28.77612549 81.9582251 28.74365723 82.68598145 28.71020508 83.43579102 C28.65431397 84.87182404 28.61830922 86.30879813 28.60424805 87.74584961 C28.5390625 89.7265625 28.5390625 89.7265625 28 93 C23.72430717 95.90072192 18.97231936 95.36789669 14 95.375 C13.09765625 95.39949219 12.1953125 95.42398438 11.265625 95.44921875 C7.34019679 95.46663929 4.7793195 95.47083887 1.375 93.4140625 C-0.56840219 90.00206662 -0.52518914 87.87639602 0 84 C1.6171875 80.9296875 1.6171875 80.9296875 3.875 77.875 C4.28065186 77.3186084 4.68630371 76.7622168 5.10424805 76.18896484 C6.38484659 74.44503539 7.68932106 72.72140087 9 71 C9.4007373 70.46568359 9.80147461 69.93136719 10.21435547 69.38085938 C15.58256242 62.2232501 21.1682633 55.23719888 26.80200195 48.28759766 C27.27597412 47.70026855 27.74994629 47.11293945 28.23828125 46.5078125 C28.65118408 45.99879395 29.06408691 45.48977539 29.48950195 44.96533203 C31.74012965 42.03700604 33.85331666 39.00535668 36 36 C24.12 35.67 12.24 35.34 0 35 C0 23.45 0 11.9 0 0 Z " fill="#FBFAFA" transform="translate(122,60)"/>
<path d="M0 0 C2.31 0 4.62 0 7 0 C7 11.22 7 22.44 7 34 C4.03 34.66 1.06 35.32 -2 36 C-2.33 56.46 -2.66 76.92 -3 98 C-9 97 -9 97 -11.35058594 95.49511719 C-13.81665969 91.76461486 -13.4991472 88.45384612 -13.390625 84.078125 C-13.38496521 83.21813904 -13.37930542 82.35815308 -13.37347412 81.47210693 C-13.35111951 78.73083351 -13.30092602 75.99087696 -13.25 73.25 C-13.22993376 71.38934182 -13.21168321 69.52866311 -13.1953125 67.66796875 C-13.15125784 63.11147334 -13.08223754 58.55595978 -13 54 C-11.02 54 -9.04 54 -7 54 C-8.65 53.67 -10.3 53.34 -12 53 C-11.48562899 45.79880584 -9.8530862 39.02257468 -8.03515625 32.0625 C-6.91185046 27.73193702 -5.94629526 23.37218772 -5 19 C-4.31434189 15.83292801 -3.62684551 12.66627139 -2.9375 9.5 C-2.76412109 8.69046875 -2.59074219 7.8809375 -2.41210938 7.046875 C-1.11278195 1.11278195 -1.11278195 1.11278195 0 0 Z " fill="#F80B6B" transform="translate(102,61)"/>
<path d="M0 0 C12.21 0 24.42 0 37 0 C34.66268958 3.89551737 32.32952485 7.30376596 29.5625 10.875 C28.91269165 11.71647583 28.91269165 11.71647583 28.24975586 12.57495117 C25.88879661 15.61933496 23.49539213 18.63388195 21.0625 21.62109375 C15.1483222 28.89213305 9.58949218 36.27039238 4.38891602 44.07348633 C3.28076198 45.73023148 2.14345181 47.36741683 1 49 C0.67 49 0.34 49 0 49 C0 32.83 0 16.66 0 0 Z " fill="#090A0A" transform="translate(122,95)"/>
<path d="M0 0 C0.21875528 5.51293942 0.41525299 11.02608228 0.59204102 16.54052734 C0.65508447 18.41248261 0.7239818 20.28425099 0.79907227 22.15576172 C1.54941333 41.04018446 1.54941333 41.04018446 -2 50 C-2.5182453 52.34587365 -3.00081913 54.70008361 -3.4375 57.0625 C-5.04704911 65.43557997 -7.00162097 73.71230625 -9 82 C-6.525 81.505 -6.525 81.505 -4 81 C-4 81.66 -4 82.32 -4 83 C-5.98 83 -7.96 83 -10 83 C-10 93.89 -10 104.78 -10 116 C-10.33 116 -10.66 116 -11 116 C-11.07014303 102.02221047 -11.12281449 88.04444831 -11.15543652 74.06651878 C-11.17109333 67.57602205 -11.19233225 61.08564354 -11.22631836 54.59521484 C-11.2589107 48.33177147 -11.2768529 42.06844183 -11.28463173 35.8049202 C-11.29017541 33.41510859 -11.30100079 31.02530321 -11.31719017 28.63554001 C-11.33896228 25.28862803 -11.34196695 21.94218623 -11.34057617 18.59521484 C-11.351362 17.60690674 -11.36214783 16.61859863 -11.3732605 15.6003418 C-11.34956171 10.33087719 -11.05100042 6.50962545 -8 2 C-4.77208445 -0.1519437 -3.71599191 -0.20086443 0 0 Z " fill="#E51268" transform="translate(99,32)"/>
<path d="M0 0 C0.05076484 7.58053728 0.08576094 15.1610306 0.10986328 22.74169922 C0.11991262 25.31984088 0.13355426 27.89797118 0.15087891 30.47607422 C0.17517367 34.18459889 0.18649396 37.89297268 0.1953125 41.6015625 C0.20563507 42.75177887 0.21595764 43.90199524 0.22659302 45.08706665 C0.22804656 55.48539628 0.22804656 55.48539628 -2 60 C-6.94736842 64 -6.94736842 64 -11 64 C-11 43.54 -11 23.08 -11 2 C-6.78370866 -0.10814567 -4.60209225 -0.17700355 0 0 Z " fill="#100A0E" transform="translate(110,95)"/>
<path d="M0 0 C2.31 0 4.62 0 7 0 C7 11.22 7 22.44 7 34 C4.03 34.66 1.06 35.32 -2 36 C-6.02900746 40.02900746 -6.1898571 46.55774594 -7 52 C-9.475 52.495 -9.475 52.495 -12 53 C-11.48562899 45.79880584 -9.8530862 39.02257468 -8.03515625 32.0625 C-6.91185046 27.73193702 -5.94629526 23.37218772 -5 19 C-4.31434189 15.83292801 -3.62684551 12.66627139 -2.9375 9.5 C-2.76412109 8.69046875 -2.59074219 7.8809375 -2.41210938 7.046875 C-1.11278195 1.11278195 -1.11278195 1.11278195 0 0 Z " fill="#FDFCFC" transform="translate(102,61)"/>
<path d="M0 0 C6 1 6 1 8.359375 2.85546875 C10.83925056 7.60856357 10.42535904 12.04161204 10.25 17.3125 C10.23195313 18.33923828 10.21390625 19.36597656 10.1953125 20.42382812 C10.14831063 22.95017885 10.08262272 25.47460469 10 28 C7.69 28 5.38 28 3 28 C2.34 31.3 1.68 34.6 1 38 C0.67 38 0.34 38 0 38 C0 25.46 0 12.92 0 0 Z " fill="#060607" transform="translate(99,32)"/>
<path d="M0 0 C5.28 0 10.56 0 16 0 C15.67 2.97 15.34 5.94 15 9 C-19.65 9 -54.3 9 -90 9 C-90 8.67 -90 8.34 -90 8 C-60.3 8 -30.6 8 0 8 C0 5.36 0 2.72 0 0 Z " fill="#9B2D5C" transform="translate(99,163)"/>
<path d="M0 0 C4.95 0 9.9 0 15 0 C14.34 2.64 13.68 5.28 13 8 C8.71 8 4.42 8 0 8 C0 5.36 0 2.72 0 0 Z " fill="#040606" transform="translate(100,163)"/>
</svg>
